<svg xmlns="http://www.w3.org/2000/svg" width="32" height="32" viewBox="0 0 32 32">
  <path id="nebula_galaxy_universe_astronomy" data-name="nebula, galaxy, universe, astronomy" d="M35.865,25.156a.8.8,0,0,0-1.109-.222c-3.924,2.615-10.266,1.142-13.177-1.262a3.985,3.985,0,0,0,.942-.593c.167.013.328.034.5.034,4.394,0,11.325-4.03,12.467-9.745a.8.8,0,0,0-1.569-.313C33,17.684,27.467,21.14,23.707,21.485A3.975,3.975,0,0,0,23.96,20.4c3.312-2.832,5.668-11,2.306-16.041a.8.8,0,0,0-1.332.887c2.616,3.925,1.142,10.267-1.262,13.177a3.979,3.979,0,0,0-.592-.941c.34-4.342-3.768-11.783-9.712-12.972a.8.8,0,1,0-.314,1.569c4.627.925,8.07,6.455,8.425,10.214A3.975,3.975,0,0,0,20.4,16.04c-2.831-3.311-11-5.665-16.04-2.306a.8.8,0,1,0,.887,1.331c3.924-2.615,10.266-1.142,13.177,1.262a3.986,3.986,0,0,0-.942.592C13.133,16.589,5.7,20.687,4.508,26.631a.8.8,0,0,0,.627.941.781.781,0,0,0,.158.016.8.8,0,0,0,.784-.644C7,22.317,12.535,18.86,16.292,18.515A3.972,3.972,0,0,0,16.04,19.6c-3.312,2.832-5.668,11-2.306,16.041a.8.8,0,1,0,1.331-.887c-2.616-3.925-1.143-10.267,1.262-13.177a3.981,3.981,0,0,0,.592.941c-.34,4.342,3.767,11.784,9.712,12.972a.76.76,0,0,0,.158.016.8.8,0,0,0,.155-1.584C22.318,33,18.875,27.469,18.52,23.709a3.969,3.969,0,0,0,1.1.253c1.861,2.173,6,3.939,10.07,3.939a10.684,10.684,0,0,0,5.958-1.634.8.8,0,0,0,.222-1.11Z" transform="translate(-4 -4)" fill="#fff"/>
</svg>
