<svg xmlns="http://www.w3.org/2000/svg" width="32" height="31.96" viewBox="0 0 32 31.96">
  <g id="shooting_star_falling_space" data-name="shooting, star, falling, space" transform="translate(-4 -4.038)">
    <path id="Trazado_41" data-name="Trazado 41" d="M39.959,10.043a.8.8,0,0,0-.638-.536l-4.553-.7L32.724,4.457a.835.835,0,0,0-1.448,0L29.232,8.812l-4.553.7a.8.8,0,0,0-.452,1.35l3.318,3.4L26.76,19.07a.8.8,0,0,0,.329.783.793.793,0,0,0,.848.045L32,17.653,36.063,19.9a.8.8,0,0,0,1.177-.828l-.785-4.811,3.318-3.4a.8.8,0,0,0,.186-.814Z" transform="translate(-3.999)" fill="#fff"/>
    <path id="Trazado_42" data-name="Trazado 42" d="M19.943,18.491a.8.8,0,0,0-1.04-.445c-8.58,3.431-13.311,8.7-14.887,16.586a.8.8,0,0,0,.627.941.782.782,0,0,0,.158.016.8.8,0,0,0,.784-.644c1.48-7.4,5.772-12.158,13.913-15.414A.8.8,0,0,0,19.943,18.491Z" transform="translate(0 -2.79)" fill="#fff"/>
    <path id="Trazado_43" data-name="Trazado 43" d="M22.663,25.339a.8.8,0,0,0-1.111-.214A17.653,17.653,0,0,0,14,39.388a.8.8,0,0,0,1.6,0A16.012,16.012,0,0,1,22.449,26.45.8.8,0,0,0,22.663,25.339Z" transform="translate(-2 -4.189)" fill="#fff"/>
    <path id="Trazado_44" data-name="Trazado 44" d="M29.024,26.233C24.49,30.939,24,37.141,24,39.588a.8.8,0,0,0,1.6,0c0-2.253.446-7.958,4.576-12.246a.8.8,0,0,0-1.152-1.109Z" transform="translate(-4 -4.39)" fill="#fff"/>
  </g>
</svg>
