<svg xmlns="http://www.w3.org/2000/svg" width="32.06" height="32" viewBox="0 0 32.06 32">
  <path id="constellation_zodiac_astronomy_horoscope" data-name="constellation, zodiac, astronomy, horoscope" d="M32.781,20.007a3.192,3.192,0,0,0-2.712,1.522l-6.9-1.38c0-.048.014-.093.014-.142a3.175,3.175,0,0,0-.237-1.2l5.019-5.657a3.163,3.163,0,0,0,1.618.455,3.2,3.2,0,1,0-3.2-3.2,3.163,3.163,0,0,0,.45,1.609L21.958,17.51a3.173,3.173,0,0,0-1.253-.613L19.909,10a3.18,3.18,0,1,0-1.564.4l.756,6.542a3.192,3.192,0,0,0-1.347.772l-5.775-2.467c0-.015,0-.029,0-.043A3.2,3.2,0,1,0,7.8,18.237L6.544,23.272a3.232,3.232,0,1,0,1.622.105l1.259-5.034A3.2,3.2,0,0,0,11.54,16.8l5.388,2.3a3.157,3.157,0,0,0-.146.9,3.194,3.194,0,0,0,2.179,3.017l-1.981,6.6c-.067,0-.131-.02-.2-.02a3.219,3.219,0,1,0,1.722.511L20.6,23.145a3.2,3.2,0,0,0,2.1-1.46l6.9,1.38c0,.048-.014.094-.014.142a3.2,3.2,0,1,0,3.2-3.2Z" transform="translate(-3.92 -4.045)" fill="#fff"/>
</svg>
