<svg xmlns="http://www.w3.org/2000/svg" width="33.327" height="35" viewBox="0 0 33.327 35">
  <g id="moon_star_night_moonlight" data-name="moon, star, night, moonlight" transform="translate(-4.292 -3.416)">
    <path id="Trazado_21" data-name="Trazado 21" d="M29.238,17.017l-.639,3.92a.858.858,0,0,0,1.262.889L33.159,20l3.3,1.823a.858.858,0,0,0,1.262-.889l-.639-3.92,2.7-2.768A.857.857,0,0,0,39.3,12.8l-3.7-.566-1.663-3.54a.892.892,0,0,0-1.552,0l-1.663,3.54-3.7.566a.857.857,0,0,0-.484,1.447Z" transform="translate(-3.118 -0.684)" fill="#fff"/>
    <path id="Trazado_22" data-name="Trazado 22" d="M37.431,29.105a.863.863,0,0,0-.964-.27,16.284,16.284,0,0,1-19.291-24.1.858.858,0,0,0-1.016-1.27A18.014,18.014,0,1,0,37.483,30.105.858.858,0,0,0,37.431,29.105Z" transform="translate(0)" fill="#fff"/>
  </g>
</svg>
